<?xml version="1.0" encoding="utf-8"?>
<!-- Generated by IcoMoon.io -->
<!DOCTYPE svg PUBLIC "-//W3C//DTD SVG 1.1//EN" "http://www.w3.org/Graphics/SVG/1.1/DTD/svg11.dtd">
<svg version="1.1" xmlns="http://www.w3.org/2000/svg" xmlns:xlink="http://www.w3.org/1999/xlink" width="32" height="32" viewBox="0 0 32 32">
<path fill="#808080" d="M12.228 2.667c0.55 1.552 2.033 2.667 3.772 2.667s3.221-1.115 3.772-2.667h1.55c1.479 0 3.343 0.997 4.164 2.228l3.848 5.772-4.533 3.6-0.8-0.933v14.663c0 0.738-0.608 1.337-1.337 1.337h-13.327c-0.738 0-1.337-0.608-1.337-1.337v-14.663l-0.667 0.933-4.667-3.6 3.848-5.772c0.821-1.231 2.688-2.228 4.164-2.228h1.55zM20 10.667c-0.735 0-1.333 0.598-1.333 1.333s0.598 1.333 1.333 1.333c0.735 0 1.333-0.598 1.333-1.333s-0.598-1.333-1.333-1.333z"></path>
</svg>
