<?xml version="1.0" encoding="utf-8"?>
<!-- Generated by IcoMoon.io -->
<!DOCTYPE svg PUBLIC "-//W3C//DTD SVG 1.1//EN" "http://www.w3.org/Graphics/SVG/1.1/DTD/svg11.dtd">
<svg version="1.1" xmlns="http://www.w3.org/2000/svg" xmlns:xlink="http://www.w3.org/1999/xlink" width="32" height="32" viewBox="0 0 32 32">
<path fill="#808080" d="M5.333 5.321v21.358c0 1.457 1.19 2.654 2.659 2.654h16.016c1.466 0 2.659-1.188 2.659-2.654v-21.358c0-1.457-1.19-2.654-2.659-2.654h-16.016c-1.466 0-2.659 1.188-2.659 2.654zM10.667 18.667c0-2.946 2.394-5.333 5.333-5.333 2.946 0 5.333 2.394 5.333 5.333 0 2.946-2.394 5.333-5.333 5.333-2.946 0-5.333-2.394-5.333-5.333zM8 5.333h5.333v2.667h-5.333v-2.667zM21.333 5.333h2.667v2.667h-2.667v-2.667z"></path>
</svg>
