<?xml version="1.0" encoding="utf-8"?>
<!-- Generated by IcoMoon.io -->
<!DOCTYPE svg PUBLIC "-//W3C//DTD SVG 1.1//EN" "http://www.w3.org/Graphics/SVG/1.1/DTD/svg11.dtd">
<svg version="1.1" xmlns="http://www.w3.org/2000/svg" xmlns:xlink="http://www.w3.org/1999/xlink" width="32" height="32" viewBox="0 0 32 32">
<path fill="#808080" d="M10.379 9.332c-0.713 0.034-1.448 0.59-1.669 1.27l-3.591 11.059c-0.408 1.256 0.33 2.283 1.651 2.283h0.159c0.593 0 1.305-0.419 1.601-0.936l2.482-4.341h9.806l2.755 4.158c0.409 0.618 1.327 1.119 2.074 1.119h-0.105c1.393 0 2.126-1.053 1.63-2.372l-3.185-8.462-0.003-5.11h4.674c1.103 0 2.003-0.895 2.003-2v0.246c0-0.729-0.537-1.581-1.2-1.901l-5.725-2.762c-1.332-0.643-2.744-0.020-3.167 1.386l-1.904 6.335h-7.996c-0.098 0-0.195 0.010-0.292 0.028zM1.953 25.427c0.394-0.788 1.376-1.16 2.213-0.863 0 0 3.835 1.841 11.835 1.839s11.852-1.846 11.852-1.846c0.818-0.307 1.804 0.089 2.195 0.87l-0.094-0.187c0.394 0.788 0.065 1.712-0.771 2.032 0 0-3.849 2.062-13.182 2.062s-13.183-2.062-13.183-2.062c-0.82-0.334-1.162-1.251-0.771-2.032l-0.094 0.187zM24 4.667c0-0.368 0.309-0.667 0.667-0.667 0.368 0 0.667 0.309 0.667 0.667 0 0.368-0.309 0.667-0.667 0.667-0.368 0-0.667-0.309-0.667-0.667z"></path>
</svg>
