<?xml version="1.0" encoding="utf-8"?>
<!-- Generated by IcoMoon.io -->
<!DOCTYPE svg PUBLIC "-//W3C//DTD SVG 1.1//EN" "http://www.w3.org/Graphics/SVG/1.1/DTD/svg11.dtd">
<svg version="1.1" xmlns="http://www.w3.org/2000/svg" xmlns:xlink="http://www.w3.org/1999/xlink" width="32" height="32" viewBox="0 0 32 32">
<path fill="#808080" d="M5.333 2.673v26.653c0 1.477 1.19 2.673 2.659 2.673h16.016c1.466 0 2.659-1.197 2.659-2.673v-26.653c0-1.477-1.19-2.673-2.659-2.673h-16.016c-1.466 0-2.659 1.197-2.659 2.673zM8 5.333h16v18.667h-16v-18.667zM14.667 28c0-0.736 0.592-1.333 1.333-1.333 0.736 0 1.333 0.592 1.333 1.333 0 0.736-0.592 1.333-1.333 1.333-0.736 0-1.333-0.592-1.333-1.333z"></path>
</svg>
