<?xml version="1.0" encoding="utf-8"?>
<!-- Generated by IcoMoon.io -->
<!DOCTYPE svg PUBLIC "-//W3C//DTD SVG 1.1//EN" "http://www.w3.org/Graphics/SVG/1.1/DTD/svg11.dtd">
<svg version="1.1" xmlns="http://www.w3.org/2000/svg" xmlns:xlink="http://www.w3.org/1999/xlink" width="32" height="32" viewBox="0 0 32 32">
<path fill="#808080" d="M2.667 10.674v13.318c0 1.478 1.195 2.674 2.669 2.674h7.986c1.487 0 3.878 0 5.358 0h7.986c1.463 0 2.669-1.197 2.669-2.674v-13.318c0-1.478-1.188-2.674-2.654-2.674h-21.358c-1.457 0-2.654 1.197-2.654 2.674zM13.371 5.333h7.924l1.371 2.667h-10.667l1.371-2.667zM6.667 12c0-0.736 0.592-1.333 1.333-1.333 0.736 0 1.333 0.592 1.333 1.333 0 0.736-0.592 1.333-1.333 1.333-0.736 0-1.333-0.592-1.333-1.333zM10.667 17.333c0-3.682 2.992-6.667 6.667-6.667 3.682 0 6.667 2.992 6.667 6.667 0 3.682-2.992 6.667-6.667 6.667-3.682 0-6.667-2.992-6.667-6.667zM13.333 17.333c0-2.209 1.795-4 4-4 2.209 0 4 1.795 4 4 0 2.209-1.795 4-4 4-2.209 0-4-1.795-4-4z"></path>
</svg>
