<?xml version="1.0" encoding="utf-8"?>
<!-- Generated by IcoMoon.io -->
<!DOCTYPE svg PUBLIC "-//W3C//DTD SVG 1.1//EN" "http://www.w3.org/Graphics/SVG/1.1/DTD/svg11.dtd">
<svg version="1.1" xmlns="http://www.w3.org/2000/svg" xmlns:xlink="http://www.w3.org/1999/xlink" width="32" height="32" viewBox="0 0 32 32">
<path fill="#808080" d="M27.728 13.548l-0.765-6.885c-0.163-1.469-1.486-2.663-2.955-2.663h-16.016c-1.466 0-2.791 1.192-2.955 2.663l-0.765 6.889c-0.941 0.411-1.605 1.356-1.605 2.456v6.659h26.667v-6.659c0-1.113-0.661-2.054-1.606-2.46zM2.667 22.667v3.988c0 0.755 0.603 1.346 1.346 1.346h2.642c0.755 0 1.346-0.603 1.346-1.346v-3.988h-5.333zM24 22.667v3.988c0 0.755 0.603 1.346 1.346 1.346h2.642c0.755 0 1.346-0.603 1.346-1.346v-3.988h-5.333zM7.333 20c-1.105 0-2-0.895-2-2s0.895-2 2-2c1.105 0 2 0.895 2 2s-0.895 2-2 2zM24.667 20c-1.105 0-2-0.895-2-2s0.895-2 2-2c1.105 0 2 0.895 2 2s-0.895 2-2 2zM7.142 7.984c0.065-0.727 0.719-1.317 1.46-1.317h14.796c0.742 0 1.395 0.592 1.46 1.317l0.476 5.35h-18.667l0.476-5.35z"></path>
</svg>
