<?xml version="1.0" encoding="utf-8"?>
<!-- Generated by IcoMoon.io -->
<!DOCTYPE svg PUBLIC "-//W3C//DTD SVG 1.1//EN" "http://www.w3.org/Graphics/SVG/1.1/DTD/svg11.dtd">
<svg version="1.1" xmlns="http://www.w3.org/2000/svg" xmlns:xlink="http://www.w3.org/1999/xlink" width="32" height="32" viewBox="0 0 32 32">
<path fill="#808080" d="M24 25.329c-0.001 2.769-2.667 2.671-4 2.671s-2-0.4-4-0.4c-2 0-2.667 0.4-4 0.4s-4 0-4-2.671c0-1.338 1.333-2.688 2.667-5.329s2.52-5.333 5.333-5.333c2.813 0 4 2.713 5.333 5.333s2.667 3.893 2.667 5.329zM7.91 19.819c1.508-0.656 1.876-2.897 0.821-5.006s-3.133-3.287-4.642-2.632c-1.508 0.656-1.876 2.897-0.821 5.006s3.133 3.287 4.642 2.632zM24.090 19.819c-1.508-0.656-1.876-2.897-0.821-5.006s3.133-3.287 4.642-2.632c1.508 0.656 1.876 2.897 0.821 5.006s-3.133 3.287-4.642 2.632zM12.456 13.301c1.779-0.299 2.837-2.617 2.365-5.177s-2.298-4.392-4.077-4.093c-1.779 0.299-2.837 2.617-2.365 5.177s2.298 4.392 4.077 4.093zM19.544 13.301c-1.779-0.299-2.837-2.617-2.365-5.177s2.298-4.392 4.077-4.093c1.779 0.299 2.837 2.617 2.365 5.177s-2.298 4.392-4.077 4.093z"></path>
</svg>
