<?xml version="1.0" encoding="utf-8"?>
<!-- Generated by IcoMoon.io -->
<!DOCTYPE svg PUBLIC "-//W3C//DTD SVG 1.1//EN" "http://www.w3.org/Graphics/SVG/1.1/DTD/svg11.dtd">
<svg version="1.1" xmlns="http://www.w3.org/2000/svg" xmlns:xlink="http://www.w3.org/1999/xlink" width="32" height="32" viewBox="0 0 32 32">
<path fill="#808080" d="M29.316 15.904c0.028 3.239-1.113 6.484-3.429 9.041l-5.635-5.635c2.634-2.437 5.303-3.478 7.897-3.479 0.403-0 0.793 0.025 1.167 0.073v0zM29.236 14.548c-0.163-1.485-0.575-2.948-1.234-4.322l0.022-0.084-0.069-0.018c-0.516-1.053-1.172-2.055-1.979-2.97l-8.939 8.939 2.272 2.272c2.893-2.69 5.898-3.868 8.84-3.869 0.381-0 0.743 0.018 1.087 0.051v0zM15.78 29.314c3.28 0.055 6.576-1.082 9.165-3.426l-5.639-5.639c-2.514 2.671-3.585 5.38-3.586 8.011-0 0.363 0.021 0.714 0.059 1.054v0zM14.427 29.226c-2.625-0.308-5.174-1.387-7.272-3.249l8.94-8.94 2.269 2.269c-2.766 2.928-3.975 5.973-3.976 8.954-0 0.336 0.014 0.658 0.040 0.966v0zM16.095 2.673c-3.238-0.023-6.483 1.123-9.040 3.439l5.635 5.635c2.437-2.634 3.478-5.303 3.479-7.897 0-0.407-0.026-0.8-0.074-1.177v0zM17.451 2.752c2.751 0.298 5.426 1.449 7.593 3.451l-8.949 8.949-2.461-2.461c2.69-2.893 3.868-5.898 3.869-8.84 0-0.385-0.018-0.752-0.052-1.099v0zM2.675 16.219c-0.053-3.279 1.092-6.575 3.437-9.164l5.639 5.639c-2.671 2.514-5.38 3.585-8.011 3.586-0.367 0-0.722-0.021-1.065-0.061v0zM2.765 17.572c0.319 2.708 1.465 5.336 3.437 7.471l8.949-8.949-2.457-2.457c-2.928 2.766-5.973 3.975-8.954 3.976-0.339 0-0.665-0.014-0.975-0.041v0z"></path>
</svg>
