<?xml version="1.0" encoding="utf-8"?>
<!-- Generated by IcoMoon.io -->
<!DOCTYPE svg PUBLIC "-//W3C//DTD SVG 1.1//EN" "http://www.w3.org/Graphics/SVG/1.1/DTD/svg11.dtd">
<svg version="1.1" xmlns="http://www.w3.org/2000/svg" xmlns:xlink="http://www.w3.org/1999/xlink" width="32" height="32" viewBox="0 0 32 32">
<path fill="#808080" d="M5.333 13.333c-1.483 0-2.667 1.197-2.667 2.675v3.984c0 1.492 1.188 2.675 2.654 2.675h21.358c1.457 0 2.654-1.197 2.654-2.675v-3.984c0-1.492-1.194-2.675-2.667-2.675v-4.003c0-1.482-1.19-2.664-2.659-2.664h-16.016c-1.466 0-2.659 1.193-2.659 2.664v4.003zM5.333 17.332c0-0.736 0.593-1.332 1.335-1.332h18.664c0.737 0 1.334 0.59 1.334 1.332v2.668h-21.333v-2.668zM6.667 22.667h2.667v2.667h-2.667v-2.667zM22.667 22.667h2.667v2.667h-2.667v-2.667z"></path>
</svg>
