<svg width="24" height="24" viewBox="0 0 24 24" xmlns="http://www.w3.org/2000/svg">
  <title>
    key
  </title>
  <g fill="none" fill-rule="evenodd">
    <path d="M0 0h24v24H0"/>
    <path d="M20.903 2.723c.0575.0495.1136.1015.168.156 1.1716 1.1716 1.1715 3.0712.0042 4.2385l-.8326.8326H19v1.243l-.7574.7575H17v1.2427l-1.406 1.406c.263.735.406 1.527.406 2.3514 0 3.866-3.142 7-7 7-3.866 0-7-3.1418-7-7 0-3.866 3.142-7 7-7 .825 0 1.6167.143 2.3517.4057l5.4808-5.4807c.867-.867 2.1355-1.089 3.21-.6692l-6.396 6.396c-.1924.1924-.1973.514-.002.709.1895.1897.5127.1946.709-.0017l6.4565-6.457c.0387-.0386.0698-.0825.0932-.1296zM6.2612 16.9327l.706.706c.5814.5814 1.536.5863 2.122.0005.5898-.5897.5854-1.5357-.0007-2.1218l-.706-.706c-.5814-.5813-1.536-.5863-2.1218-.0005-.59.59-.5856 1.5355.0005 2.122z" fill="gray"/>
  </g>
</svg>
