<svg width="24" height="24" viewBox="0 0 24 24" xmlns="http://www.w3.org/2000/svg">
  <title>
    kidswear
  </title>
  <g fill="none" fill-rule="evenodd">
    <path d="M24 24H0V0h24"/>
    <path d="M13.9463 10.891c.342.1427.7056.144 1.007-.03.5917-.3418.7187-1.2297.2835-1.9834-.435-.7537-1.2676-1.0877-1.8594-.746-.5456.315-.696 1.0942-.3754 1.8045-.293-.1493-.6248-.2334-.9766-.2334h-.0508c-.352 0-.6845.0853-.978.2365.3225-.711.1723-1.492-.374-1.8073-.5918-.3417-1.4243-.0077-1.8594.746-.4352.7537-.3082 1.6416.2836 1.9833.3022.1744.667.1727 1.01.029-.145.289-.2267.6157-.2267.9612 0 1.195.9603 2.1488 2.1447 2.1488h.0508c1.1814 0 2.1445-.962 2.1445-2.1488 0-.346-.0806-.6718-.2237-.96zM6 11l-.5.7L2 9l2.8858-4.3287C5.501 3.7483 6.9 3 8.001 3H9s.483 2 3 2 3-2 3-2h.999c1.105 0 2.4995.7478 3.1152 1.6713L22 9l-3.4 2.7-.6-.7v8l-1.093.2733c-1.6055.4013-3.331 1.999-3.8532 3.5654L13 23h-2l-.0538-.1613c-.5226-1.5678-2.256-3.166-3.8532-3.5654L6 19v-8z" fill="gray"/>
  </g>
</svg>
