<?xml version="1.0" encoding="utf-8"?>
<!-- Generated by IcoMoon.io -->
<!DOCTYPE svg PUBLIC "-//W3C//DTD SVG 1.1//EN" "http://www.w3.org/Graphics/SVG/1.1/DTD/svg11.dtd">
<svg version="1.1" xmlns="http://www.w3.org/2000/svg" xmlns:xlink="http://www.w3.org/1999/xlink" width="32" height="32" viewBox="0 0 32 32">
<path fill="#808080" d="M2.667 5.321v21.358c0 1.457 1.195 2.654 2.669 2.654h7.986c1.487 0 3.878 0 5.358 0h7.986c1.463 0 2.669-1.188 2.669-2.654v-21.358c0-1.457-1.188-2.654-2.654-2.654h-21.358c-1.457 0-2.654 1.188-2.654 2.654zM8 16c0-4.418 3.591-8 8-8 4.418 0 8 3.591 8 8 0 4.418-3.591 8-8 8-4.418 0-8-3.591-8-8zM12 16c0-0.736 0.592-1.333 1.333-1.333 0.736 0 1.333 0.592 1.333 1.333 0 0.736-0.592 1.333-1.333 1.333-0.736 0-1.333-0.592-1.333-1.333zM17.333 16c0-0.736 0.592-1.333 1.333-1.333 0.736 0 1.333 0.592 1.333 1.333 0 0.736-0.592 1.333-1.333 1.333-0.736 0-1.333-0.592-1.333-1.333z"></path>
</svg>
