<?xml version="1.0" encoding="utf-8"?>
<!-- Generated by IcoMoon.io -->
<!DOCTYPE svg PUBLIC "-//W3C//DTD SVG 1.1//EN" "http://www.w3.org/Graphics/SVG/1.1/DTD/svg11.dtd">
<svg version="1.1" xmlns="http://www.w3.org/2000/svg" xmlns:xlink="http://www.w3.org/1999/xlink" width="32" height="32" viewBox="0 0 32 32">
<path fill="#808080" d="M17.333 6.667c2.359 0 2.667-1.333 4-1.333 5.245 0 9.333 9.941 9.333 16 0 2.667-2.667 4-4 4s-4-5.333-6.667-5.333c-1.333 0-6.574 0-8 0-2.667 0-5.333 5.333-6.667 5.333s-4-1.441-4-4c-0.001-6.059 4.089-16 9.333-16 1.333 0 2.667 1.333 4 1.333h2.667zM10.667 10c-1.838 0-3.333 1.495-3.333 3.333s1.495 3.333 3.333 3.333c1.838 0 3.333-1.495 3.333-3.333s-1.495-3.333-3.333-3.333zM10.667 12c-0.735 0-1.333 0.598-1.333 1.333s0.598 1.333 1.333 1.333c0.735 0 1.333-0.598 1.333-1.333s-0.598-1.333-1.333-1.333zM18.667 12c-0.735 0-1.333 0.598-1.333 1.333s0.598 1.333 1.333 1.333c0.735 0 1.333-0.598 1.333-1.333s-0.598-1.333-1.333-1.333zM24 12c-0.735 0-1.333 0.598-1.333 1.333s0.598 1.333 1.333 1.333c0.735 0 1.333-0.598 1.333-1.333s-0.598-1.333-1.333-1.333zM21.333 9.333c-0.735 0-1.333 0.598-1.333 1.333s0.598 1.333 1.333 1.333c0.735 0 1.333-0.598 1.333-1.333s-0.598-1.333-1.333-1.333zM21.333 14.667c-0.735 0-1.333 0.598-1.333 1.333s0.598 1.333 1.333 1.333c0.735 0 1.333-0.598 1.333-1.333s-0.598-1.333-1.333-1.333z"></path>
</svg>
