<?xml version="1.0" encoding="utf-8"?>
<!-- Generated by IcoMoon.io -->
<!DOCTYPE svg PUBLIC "-//W3C//DTD SVG 1.1//EN" "http://www.w3.org/Graphics/SVG/1.1/DTD/svg11.dtd">
<svg version="1.1" xmlns="http://www.w3.org/2000/svg" xmlns:xlink="http://www.w3.org/1999/xlink" width="32" height="32" viewBox="0 0 32 32">
<path fill="#808080" d="M3.078 18.096c-0.227-1.453-0.411-3.821-0.411-4.763h26.667c0 1.178-0.185 3.319-0.411 4.763l-0.101 0.645c-0.454 2.904-3.211 5.259-6.148 5.259h-13.347c-2.942 0-5.694-2.355-6.148-5.259l-0.101-0.645zM8 26.667h16v2.667h-16v-2.667zM7.846 10.697c-2.017-1.78-4.303-3.649-4.303-3.649-1.101-0.913-1.177-2.469-0.159-3.487l0.18-0.18c1.013-1.013 2.573-0.939 3.487 0.159 0 0 3.649 4.464 5.606 6.421 0.239 0.239 0.499 0.486 0.773 0.736h-5.585z"></path>
</svg>
