<svg width="24" height="24" viewBox="0 0 24 24" xmlns="http://www.w3.org/2000/svg"><title>Shape</title><g fill="none" fill-rule="evenodd"><path d="M24 24H0V0h24"/><path d="M11 3c0 .556.448 1 1 1 .556 0 1-.448 1-1 0-.556-.448-1-1-1-.556 0-1 .448-1 1zM9.17 2C9.585.835 10.697 0 12 0c1.306 0 2.417.836 2.83 2h3.176C19.106 2 20 2.898 20 3.99v16.02c0 1.1-.895 1.99-1.994 1.99H5.994C4.894 22 4 21.102 4 20.01V3.99C4 2.89 4.895 2 5.994 2H9.17zM8 8v2h8V8H8zm0 4v2h8v-2H8zm0 4v2h5v-2H8z" fill="gray"/></g></svg>