<?xml version="1.0" encoding="utf-8"?>
<!-- Generated by IcoMoon.io -->
<!DOCTYPE svg PUBLIC "-//W3C//DTD SVG 1.1//EN" "http://www.w3.org/Graphics/SVG/1.1/DTD/svg11.dtd">
<svg version="1.1" xmlns="http://www.w3.org/2000/svg" xmlns:xlink="http://www.w3.org/1999/xlink" width="32" height="32" viewBox="0 0 32 32">
<path fill="#808080" d="M24.444 12h-0.692c-0.725 0-1.369 0.596-1.428 1.331l-0.967 12.025c-0.176 2.187 1.469 3.977 3.676 3.977h0.658c2.203 0 3.823-1.78 3.61-3.977l-1.166-12.025c-0.071-0.735-0.721-1.331-1.45-1.331h-0.463c0-1.483 0.665-3.663 1.484-4.893l0.294-0.44v-4h-5.333v4l0.294 0.44c0.822 1.233 1.484 3.42 1.484 4.893zM6.667 3.221c-2.355 1.029-4 3.378-4 6.112 0 2.551 1.433 4.767 3.537 5.888l-0.837 10.135c-0.181 2.187 1.459 3.977 3.665 3.977h0.604c2.213 0 3.846-1.78 3.665-3.977l-0.837-10.135c2.105-1.121 3.537-3.337 3.537-5.888 0-2.734-1.645-5.083-4-6.112v5.725l-2.667 1.72-2.667-1.72v-5.725zM24 24h2.667v2.667h-2.667v-2.667zM8 24h2.667v2.667h-2.667v-2.667z"></path>
</svg>
